<svg xmlns="http://www.w3.org/2000/svg" xmlns:xlink="http://www.w3.org/1999/xlink" version="1.1" x="0px" y="0px" viewBox="0 0 30 37.5" enable-background="new 0 0 30 30" xml:space="preserve" fill="#D0D0D0">

  <g><path d="M-77.643,2.284c0,1.052-0.104,2.078-0.257,3.088h5.559v7.393h-6.62V9.468c-0.749,2.001-1.793,3.855-3.093,5.504h0.886   v6.621h-6.528v-1.679c-0.711,0.423-1.443,0.813-2.207,1.149c-0.443,0.196-0.899,0.365-1.359,0.53   c-2.161,0.773-4.479,1.217-6.907,1.217c-2.428,0-4.746-0.444-6.907-1.217c-0.076-0.027-0.151-0.055-0.227-0.083   c-1.806-0.671-3.488-1.584-5.013-2.708v20.096c0,3.369,2.635,6.103,5.884,6.103h39.998c3.25,0,5.884-2.733,5.884-6.103V0.349   h-19.19C-77.681,0.987-77.643,1.631-77.643,2.284z M-98.729,40.523h-3.63h-2.942v-2.942v-4.956h6.573L-98.729,40.523   L-98.729,40.523z M-98.729,30.418h-6.573v-6.62h6.573V30.418z M-89.902,40.523h-6.62v-7.898h6.62V40.523z M-89.902,30.418h-6.62   v-6.62h6.62V30.418z M-81.167,40.523h-6.528v-7.898h6.528V40.523z M-81.167,30.418h-6.528v-6.62h6.528V30.418z M-72.341,40.523   h-6.62v-7.898h6.62V40.523z M-72.341,30.418h-6.62v-6.62h6.62V30.418z M-72.341,21.592h-6.62v-6.621h6.62V21.592z M-70.134,5.373   h6.605v7.393h-6.605V5.373z M-70.134,14.972h6.605v6.621h-6.605V14.972z M-70.134,23.798h6.605v6.62h-6.605V23.798z    M-70.134,32.625h6.605v7.898h-2.972h-3.633V32.625z"/><path d="M-64.066-10.373l-17.967-0.001c2.081,2.648,3.514,5.817,4.089,9.283h19.396v-3.222   C-58.548-7.551-60.99-10.174-64.066-10.373z"/><path d="M-80.883,2.284C-80.883-7.261-88.622-15-98.167-15c-9.546,0-17.284,7.738-17.284,17.284s7.738,17.284,17.284,17.284   C-88.622,19.568-80.883,11.83-80.883,2.284z M-112.39,2.284c0-7.842,6.38-14.222,14.222-14.222s14.222,6.38,14.222,14.222   s-6.38,14.222-14.222,14.222S-112.39,10.126-112.39,2.284z"/><circle cx="-86.318" cy="2.132" r="1.215"/><circle cx="-110.017" cy="2.132" r="1.215"/><circle cx="-98.167" cy="-9.717" r="1.215"/><circle cx="-98.167" cy="13.981" r="1.215"/><circle cx="-87.917" cy="-3.891" r="1.215"/><circle cx="-108.441" cy="7.958" r="1.215"/><circle cx="-104.104" cy="-8.228" r="1.215"/><circle cx="-92.255" cy="12.295" r="1.216"/><circle cx="-92.371" cy="-8.342" r="1.216"/><circle cx="-104.221" cy="12.181" r="1.215"/><circle cx="-108.558" cy="-4.005" r="1.215"/><circle cx="-88.034" cy="7.844" r="1.215"/><path d="M-95.581,3.5h4.119V1.069h-4.119c-0.284-0.602-0.769-1.087-1.371-1.371v-7.315h-2.431v7.315   c-0.973,0.458-1.65,1.44-1.65,2.586c0,1.583,1.283,2.866,2.866,2.866C-97.021,5.15-96.039,4.472-95.581,3.5z"/></g>

  <g><path d="M-21.762,6.523c0,0.701-0.069,1.385-0.171,2.059h3.706v4.929h-4.414v-2.198c-0.499,1.334-1.195,2.57-2.062,3.669h0.591   v4.414h-4.352v-1.119c-0.474,0.282-0.962,0.542-1.471,0.766c-0.295,0.13-0.6,0.243-0.906,0.353   c-1.441,0.515-2.986,0.812-4.604,0.812c-1.619,0-3.164-0.296-4.604-0.812c-0.051-0.018-0.101-0.037-0.151-0.055   c-1.204-0.447-2.326-1.057-3.342-1.806v13.397c0,2.246,1.756,4.068,3.923,4.068h26.666c2.167,0,3.923-1.822,3.923-4.068V5.233   h-12.795C-21.787,5.658-21.762,6.087-21.762,6.523z M-35.819,32.016h-2.42H-40.2v-1.961V26.75h4.382v5.266H-35.819z    M-35.819,25.279h-4.382v-4.414h4.382V25.279z M-29.935,32.016h-4.414V26.75h4.414V32.016z M-29.935,25.279h-4.414v-4.414h4.414   V25.279z M-24.111,32.016h-4.352V26.75h4.352V32.016z M-24.111,25.279h-4.352v-4.414h4.352V25.279z M-18.227,32.016h-4.414V26.75   h4.414V32.016z M-18.227,25.279h-4.414v-4.414h4.414V25.279z M-18.227,19.395h-4.414v-4.414h4.414V19.395z M-16.756,8.582h4.403   v4.929h-4.403V8.582z M-16.756,14.981h4.403v4.414h-4.403V14.981z M-16.756,20.865h4.403v4.414h-4.403V20.865z M-16.756,26.75   h4.403v5.266h-1.981h-2.422V26.75z"/><path d="M-12.71-1.916h-11.978c1.387,1.765,2.343,3.878,2.726,6.188h12.931V2.125C-9.032-0.034-10.66-1.783-12.71-1.916z"/><path d="M-23.922,6.523C-23.922,0.159-29.082-5-35.445-5c-6.364,0-11.523,5.159-11.523,11.523s5.159,11.523,11.523,11.523   C-29.082,18.046-23.922,12.887-23.922,6.523z M-44.926,6.523c0-5.228,4.253-9.481,9.481-9.481s9.481,4.253,9.481,9.481   s-4.254,9.481-9.481,9.481C-40.673,16.004-44.926,11.75-44.926,6.523z"/><circle cx="-27.545" cy="6.421" r="0.81"/><circle cx="-43.344" cy="6.421" r="0.81"/><circle cx="-35.445" cy="-1.478" r="0.81"/><circle cx="-35.445" cy="14.321" r="0.81"/><circle cx="-28.611" cy="2.406" r="0.81"/><circle cx="-42.294" cy="10.305" r="0.81"/><circle cx="-39.403" cy="-0.485" r="0.81"/><circle cx="-31.503" cy="13.197" r="0.81"/><circle cx="-31.581" cy="-0.561" r="0.81"/><circle cx="-39.48" cy="13.121" r="0.81"/><circle cx="-42.372" cy="2.33" r="0.81"/><circle cx="-28.689" cy="10.229" r="0.81"/><path d="M-33.721,7.333h2.746V5.712h-2.746c-0.189-0.401-0.513-0.725-0.914-0.914v-4.877h-1.621v4.877   c-0.648,0.306-1.1,0.96-1.1,1.725c0,1.055,0.855,1.91,1.911,1.91C-34.681,8.433-34.026,7.981-33.721,7.333z"/></g>

<g><path d="M19.224,8.642c0,0.526-0.052,1.039-0.128,1.544h2.779v3.697h-3.31v-1.649c-0.374,1-0.896,1.927-1.546,2.752h0.443v3.31   h-3.264v-0.839c-0.355,0.211-0.721,0.406-1.103,0.574c-0.222,0.098-0.45,0.183-0.68,0.265c-1.081,0.386-2.24,0.608-3.453,0.608   c-1.214,0-2.373-0.222-3.454-0.608c-0.038-0.014-0.076-0.028-0.113-0.042c-0.903-0.335-1.744-0.792-2.507-1.354v10.049   C2.888,28.633,4.206,30,5.831,30H25.83c1.625,0,2.942-1.367,2.942-3.051V7.675h-9.596C19.205,7.993,19.224,8.315,19.224,8.642z    M8.681,27.762H6.866H5.395v-1.471v-2.479h3.286V27.762z M8.681,22.709H5.395v-3.31h3.286V22.709z M13.095,27.762H9.784v-3.949   h3.311V27.762z M13.095,22.709H9.784v-3.31h3.311V22.709z M17.462,27.762h-3.264v-3.949h3.264V27.762z M17.462,22.709h-3.264v-3.31   h3.264V22.709z M21.875,27.762h-3.31v-3.949h3.31V27.762z M21.875,22.709h-3.31v-3.31h3.31V22.709z M21.875,18.296h-3.31v-3.31   h3.31V18.296z M22.979,10.186h3.303v3.697h-3.303V10.186z M22.979,14.986h3.303v3.31h-3.303V14.986z M22.979,19.399h3.303v3.31   h-3.303V19.399z M22.979,23.813h3.303v3.949h-1.486H22.98L22.979,23.813L22.979,23.813z"/><path d="M26.013,2.313H17.03c1.04,1.324,1.757,2.909,2.044,4.641h9.698V5.343C28.771,3.725,27.55,2.413,26.013,2.313z"/><path d="M17.604,8.642C17.604,3.869,13.734,0,8.962,0C4.188,0,0.32,3.869,0.32,8.642s3.869,8.642,8.642,8.642   C13.734,17.284,17.604,13.415,17.604,8.642z M1.851,8.642c0-3.921,3.19-7.111,7.111-7.111c3.92,0,7.111,3.19,7.111,7.111   s-3.19,7.111-7.111,7.111S1.851,12.563,1.851,8.642z"/><circle cx="14.886" cy="8.566" r="0.608"/><circle cx="3.037" cy="8.566" r="0.608"/><circle cx="8.962" cy="2.642" r="0.608"/><circle cx="8.962" cy="14.491" r="0.608"/><circle cx="14.087" cy="5.554" r="0.608"/><circle cx="3.825" cy="11.479" r="0.607"/><circle cx="5.994" cy="3.386" r="0.607"/><circle cx="11.918" cy="13.647" r="0.608"/><circle cx="11.86" cy="3.329" r="0.608"/><circle cx="5.935" cy="13.591" r="0.608"/><circle cx="3.767" cy="5.498" r="0.608"/><circle cx="14.029" cy="11.422" r="0.608"/><path d="M10.255,9.25h2.06V8.034h-2.06c-0.142-0.301-0.384-0.543-0.686-0.686V3.691H8.354v3.658   c-0.486,0.229-0.825,0.72-0.825,1.293c0,0.792,0.641,1.433,1.433,1.433C9.535,10.075,10.026,9.736,10.255,9.25z"/></g>

<g><path d="M49.119,10.761c0,0.351-0.035,0.693-0.085,1.029h1.853v2.465H48.68v-1.1c-0.25,0.667-0.598,1.285-1.031,1.835h0.295v2.207   h-2.176v-0.56c-0.237,0.141-0.48,0.271-0.735,0.383c-0.147,0.065-0.3,0.122-0.453,0.177c-0.72,0.257-1.493,0.405-2.302,0.405   c-0.81,0-1.582-0.148-2.303-0.405c-0.025-0.009-0.05-0.019-0.075-0.028c-0.603-0.224-1.163-0.528-1.671-0.903v6.699   c0,1.122,0.878,2.034,1.961,2.034h13.333c1.083,0,1.961-0.912,1.961-2.034v-12.85h-6.397   C49.106,10.329,49.119,10.543,49.119,10.761z M42.09,23.508h-1.21H39.9v-0.98v-1.652h2.19V23.508z M42.09,20.139H39.9v-2.207h2.19   V20.139z M45.032,23.508h-2.207v-2.633h2.207V23.508z M45.032,20.139h-2.207v-2.207h2.207V20.139z M47.944,23.508h-2.176v-2.633   h2.176V23.508z M47.944,20.139h-2.176v-2.207h2.176V20.139z M50.886,23.508h-2.207v-2.633h2.207V23.508z M50.886,20.139h-2.207   v-2.207h2.207V20.139z M50.886,17.198h-2.207v-2.207h2.207V17.198z M51.622,11.791h2.202v2.465h-2.202V11.791z M51.622,14.991   h2.202v2.207h-2.202V14.991z M51.622,17.933h2.202v2.207h-2.202V17.933z M51.622,20.875h2.202v2.633h-0.991h-1.211V20.875z"/><path d="M53.645,6.542h-5.989c0.693,0.882,1.171,1.939,1.363,3.094h6.465V8.562C55.483,7.483,54.669,6.609,53.645,6.542z"/><path d="M48.039,10.761C48.039,7.58,45.459,5,42.277,5c-3.183,0-5.762,2.58-5.762,5.761c0,3.182,2.579,5.762,5.762,5.762   C45.459,16.523,48.039,13.943,48.039,10.761z M37.536,10.761c0-2.614,2.127-4.74,4.741-4.74c2.613,0,4.74,2.126,4.74,4.74   s-2.127,4.741-4.74,4.741C39.663,15.502,37.536,13.375,37.536,10.761z"/><circle cx="46.227" cy="10.71" r="0.405"/><circle cx="38.327" cy="10.71" r="0.405"/><circle cx="42.277" cy="6.761" r="0.405"/><circle cx="42.277" cy="14.661" r="0.405"/><circle cx="45.694" cy="8.703" r="0.405"/><circle cx="38.853" cy="12.653" r="0.405"/><circle cx="40.298" cy="7.257" r="0.405"/><circle cx="44.248" cy="14.098" r="0.405"/><circle cx="44.209" cy="7.219" r="0.405"/><circle cx="40.259" cy="14.061" r="0.405"/><circle cx="38.814" cy="8.665" r="0.405"/><circle cx="45.655" cy="12.615" r="0.405"/><path d="M43.139,11.167h1.373v-0.811h-1.373c-0.094-0.2-0.256-0.362-0.457-0.457V7.46h-0.81v2.438   c-0.324,0.153-0.55,0.48-0.55,0.862c0,0.528,0.427,0.955,0.956,0.955C42.659,11.716,42.986,11.491,43.139,11.167z"/></g></svg>