<?xml version="1.0" encoding="utf-8"?>
<!-- Generator: Adobe Illustrator 18.0.0, SVG Export Plug-In . SVG Version: 6.00 Build 0)  -->
<!DOCTYPE svg PUBLIC "-//W3C//DTD SVG 1.1//EN" "http://www.w3.org/Graphics/SVG/1.1/DTD/svg11.dtd">
<svg version="1.1" id="Layer_1" xmlns="http://www.w3.org/2000/svg" xmlns:xlink="http://www.w3.org/1999/xlink" x="0px" y="0px"
	 viewBox="177.3 263.2 240.1 179.9" enable-background="new 177.3 263.2 240.1 179.9" xml:space="preserve">
<path d="M229.5,406.7L216.3,420V286.3l13.2,13.2c2.6,2.6,7.3,2.6,9.9,0c2.6-2.6,2.6-7.3,0-9.9L215,265.2c-0.7-0.7-1.3-0.7-2.6-1.3
	c-1.3,0-2.6-0.7-3.3-0.7c-0.7,0-2,0-2.6,0.7c-0.7,0.7-1.3,0.7-2.6,1.3l-24.5,24.5c-2.6,2.6-2.6,7.3,0,9.9c2.6,2.6,7.3,2.6,9.9,0
	l13.2-13.2V420l-13.2-13.2c-2.6-2.6-7.3-2.6-9.9,0c-2.6,2.6-2.6,7.3,0,9.9l24.5,24.5c0.7,0.7,1.3,0.7,2.6,1.3c1.3,0,2.6,0.7,3.3,0.7
	c0.7,0,2,0,2.6-0.7s1.3-0.7,2.6-1.3l24.5-24.5c2.6-2.6,2.6-7.3,0-9.9C236.8,404.1,232.8,404.1,229.5,406.7z"/>
<path d="M347.9,271.1c9.3,0,16.5,7.3,16.5,16.5s-7.3,16.5-16.5,16.5h-62.2c-9.3,0-16.5-7.3-16.5-16.5s7.3-16.5,16.5-16.5H347.9z"/>
<path d="M374.4,337.3c9.3,0,16.5,7.3,16.5,16.5s-7.3,16.5-16.5,16.5h-88.6c-9.3,0-16.5-7.3-16.5-16.5s7.3-16.5,16.5-16.5H374.4z"/>
<path d="M400.8,402.8c9.3,0,16.5,7.3,16.5,16.5c0,9.3-7.3,16.5-16.5,16.5H285.7c-9.3,0-16.5-7.3-16.5-16.5c0-9.3,7.3-16.5,16.5-16.5
	H400.8z"/>
</svg>
